<?xml version="1.0" encoding="UTF-8" standalone="no"?>
<!DOCTYPE svg PUBLIC "-//W3C//DTD SVG 1.1//EN"
 "http://www.w3.org/Graphics/SVG/1.1/DTD/svg11.dtd">
<!-- Generated by graphviz version 2.43.0 (0)
 -->
<!-- Title: WaveBenchArchitecture Pages: 1 -->
<svg width="882pt" height="316pt"
 viewBox="0.00 0.00 882.00 316.00" xmlns="http://www.w3.org/2000/svg" xmlns:xlink="http://www.w3.org/1999/xlink">
<g id="graph0" class="graph" transform="scale(1 1) rotate(0) translate(4 312)">
<title>WaveBenchArchitecture</title>
<g id="clust1" class="cluster">
<title>cluster_customer</title>
<polygon fill="#f8fafc" stroke="#0284c7" stroke-width="1.5" stroke-dasharray="5,2" points="8,-47 8,-300 518,-300 518,-47 8,-47"/>
<text text-anchor="middle" x="263" y="-286.4" font-family="Helvetica,Arial,sans-serif" font-size="12.00" fill="#0f172a">CUSTOMER PREMISE / ACCESS&#45;CONTROLLED LAB</text>
</g>
<g id="clust3" class="cluster">
<title>cluster_cloud</title>
<polygon fill="#f0f9ff" stroke="#0284c7" stroke-width="2" points="526,-8 526,-175 866,-175 866,-8 526,-8"/>
<text text-anchor="middle" x="696" y="-161.4" font-family="Helvetica,Arial,sans-serif" font-size="12.00" fill="#0369a1">WAVEBENCH CLOUD SERVER (OUR INFRASTRUCTURE)</text>
</g>
<!-- main_agent -->
<g id="node1" class="node">
<title>main_agent</title>
<path fill="#e0f2fe" stroke="#0284c7" stroke-width="1.5" d="M498,-271C498,-271 328,-271 328,-271 322,-271 316,-265 316,-259 316,-259 316,-231 316,-231 316,-225 322,-219 328,-219 328,-219 498,-219 498,-219 504,-219 510,-225 510,-231 510,-231 510,-259 510,-259 510,-265 504,-271 498,-271"/>
<text text-anchor="start" x="364.5" y="-250.2" font-family="Helvetica,Arial,sans-serif" font-weight="bold" font-size="11.00">Main Debug Agent</text>
<text text-anchor="start" x="332" y="-234.8" font-family="Helvetica,Arial,sans-serif" font-size="9.00" fill="#475569">(On&#45;Premise IDE / Firmware Codebase)</text>
</g>
<!-- tool_mcps -->
<g id="node2" class="node">
<title>tool_mcps</title>
<path fill="#f3e8ff" stroke="#7c3aed" stroke-width="1.5" d="M190.5,-271C190.5,-271 27.5,-271 27.5,-271 21.5,-271 15.5,-265 15.5,-259 15.5,-259 15.5,-231 15.5,-231 15.5,-225 21.5,-219 27.5,-219 27.5,-219 190.5,-219 190.5,-219 196.5,-219 202.5,-225 202.5,-231 202.5,-231 202.5,-259 202.5,-259 202.5,-265 196.5,-271 190.5,-271"/>
<text text-anchor="start" x="65.5" y="-250.2" font-family="Helvetica,Arial,sans-serif" font-weight="bold" font-size="11.00">Local Tool MCPs</text>
<text text-anchor="start" x="32" y="-234.8" font-family="Helvetica,Arial,sans-serif" font-size="9.00" fill="#475569">(PyVISA / SCPI / Scope / VNA Drivers)</text>
</g>
<!-- main_agent&#45;&gt;tool_mcps -->
<g id="edge1" class="edge">
<title>main_agent&#45;&gt;tool_mcps</title>
<path fill="none" stroke="#7c3aed" stroke-width="1.8" d="M305.82,-245C275.65,-245 242.9,-245 212.93,-245"/>
<polygon fill="#7c3aed" stroke="#7c3aed" stroke-width="1.8" points="305.94,-248.5 315.94,-245 305.94,-241.5 305.94,-248.5"/>
<polygon fill="#7c3aed" stroke="#7c3aed" stroke-width="1.8" points="212.69,-241.5 202.69,-245 212.69,-248.5 212.69,-241.5"/>
<text text-anchor="middle" x="259.25" y="-251" font-family="Helvetica,Arial,sans-serif" font-size="10.00" fill="#6b21a8"> Local MCP API</text>
</g>
<!-- wavebench_agent -->
<g id="node4" class="node">
<title>wavebench_agent</title>
<path fill="#0284c7" stroke="#0369a1" stroke-width="2" d="M803.5,-146C803.5,-146 546.5,-146 546.5,-146 540.5,-146 534.5,-140 534.5,-134 534.5,-134 534.5,-28 534.5,-28 534.5,-22 540.5,-16 546.5,-16 546.5,-16 803.5,-16 803.5,-16 809.5,-16 815.5,-22 815.5,-28 815.5,-28 815.5,-134 815.5,-134 815.5,-140 809.5,-146 803.5,-146"/>
<text text-anchor="start" x="570" y="-116.6" font-family="Helvetica,Arial,sans-serif" font-weight="bold" font-size="13.00" fill="#ffffff">WaveBench AI Intelligence Agent</text>
<text text-anchor="start" x="563" y="-96" font-family="Helvetica,Arial,sans-serif" font-size="10.00" fill="#e0f2fe">• Functional Verification Engine</text>
<text text-anchor="start" x="563" y="-77" font-family="Helvetica,Arial,sans-serif" font-size="10.00" fill="#e0f2fe">• Signal Integrity (SI) &amp; Power Integrity (PI) Engine</text>
<text text-anchor="start" x="563" y="-58" font-family="Helvetica,Arial,sans-serif" font-size="10.00" fill="#e0f2fe">• Multi&#45;Channel Timing, Skew &amp; Setup/Hold Verifier</text>
<text text-anchor="start" x="563" y="-39" font-family="Helvetica,Arial,sans-serif" font-size="10.00" fill="#e0f2fe">• Trigger Re&#45;configuration &amp; Probe Guidance Helper</text>
</g>
<!-- main_agent&#45;&gt;wavebench_agent -->
<g id="edge3" class="edge">
<title>main_agent&#45;&gt;wavebench_agent</title>
<path fill="none" stroke="#0284c7" stroke-width="2.5" d="M464.13,-213.68C484.12,-201.73 507.19,-187.82 528,-175 540.22,-167.47 552.97,-159.53 565.63,-151.59"/>
<polygon fill="#0284c7" stroke="#0284c7" stroke-width="2.5" points="462.27,-210.71 455.47,-218.84 465.85,-216.72 462.27,-210.71"/>
<polygon fill="#0284c7" stroke="#0284c7" stroke-width="2.5" points="567.77,-154.38 574.38,-146.1 564.05,-148.46 567.77,-154.38"/>
<text text-anchor="middle" x="683" y="-186" font-family="Helvetica,Arial,sans-serif" font-size="10.00" fill="#0284c7"> &#160;A2A Protocol (Anonymized Traces, Diagnostic Verdicts &amp; Trigger Guidance) &#160;</text>
</g>
<!-- target_board -->
<g id="node3" class="node">
<title>target_board</title>
<path fill="#f1f5f9" stroke="#475569" stroke-width="1.5" d="M192,-107C192,-107 28,-107 28,-107 22,-107 16,-101 16,-95 16,-95 16,-67 16,-67 16,-61 22,-55 28,-55 28,-55 192,-55 192,-55 198,-55 204,-61 204,-67 204,-67 204,-95 204,-95 204,-101 198,-107 192,-107"/>
<text text-anchor="start" x="32" y="-86.2" font-family="Helvetica,Arial,sans-serif" font-weight="bold" font-size="11.00">Target Hardware Board (DUT)</text>
<text text-anchor="start" x="46.5" y="-70.8" font-family="Helvetica,Arial,sans-serif" font-size="9.00" fill="#475569">(Physical Board in Secure Lab)</text>
</g>
<!-- tool_mcps&#45;&gt;target_board -->
<g id="edge2" class="edge">
<title>tool_mcps&#45;&gt;target_board</title>
<path fill="none" stroke="#475569" stroke-width="1.8" d="M109.16,-218.69C109.32,-191.46 109.59,-147.97 109.78,-117.37"/>
<polygon fill="#475569" stroke="#475569" stroke-width="1.8" points="113.28,-117.16 109.84,-107.13 106.28,-117.11 113.28,-117.16"/>
<text text-anchor="middle" x="147" y="-186" font-family="Helvetica,Arial,sans-serif" font-size="10.00" fill="#334155"> Physical Probes</text>
</g>
</g>
</svg>
